<?xml version="1.0" encoding="utf-8"?>
<!DOCTYPE svg PUBLIC "-//W3C//DTD SVG 1.1//EN" "http://www.w3.org/Graphics/SVG/1.1/DTD/svg11.dtd">
<svg version="1.1" id="Layer_1" xmlns="http://www.w3.org/2000/svg" xmlns:xlink="http://www.w3.org/1999/xlink" x="0px" y="0px"
width="2400px" height="2400px" viewBox="0 0 2400 2400" enable-background="new 0 0 2400 2400" xml:space="preserve">
<rect x="0" y="0" width="2400" height="2400" fill="rgb(22,12,30)" /><g transform="translate(192,192)"><g transform="translate(768,0) scale(0.96,0.96)"><g transform="" style="fill: rgb(214, 162, 236);">
<rect width="100" height="100"/>
</g></g><g transform="translate(960,0) scale(0.96,0.96)"><g transform="" style="fill: rgb(214, 162, 236);">
<rect width="100" height="100"/>
</g></g><g transform="translate(1056,96) scale(0.96,0.96)"><g transform="" style="fill: rgb(214, 162, 236);">
<rect width="100" height="100"/>
</g></g><g transform="translate(768,192) scale(0.96,0.96)"><g transform="" style="fill: rgb(214, 162, 236);">
<rect width="100" height="100"/>
</g></g><g transform="translate(960,192) scale(0.96,0.96)"><g transform="" style="fill: rgb(214, 162, 236);">
<rect width="100" height="100"/>
</g></g><g transform="translate(1152,192) scale(0.96,0.96)"><g transform="" style="fill: rgb(214, 162, 236);">
<rect width="100" height="100"/>
</g></g><g transform="translate(1056,288) scale(0.96,0.96)"><g transform="" style="fill: rgb(214, 162, 236);">
<rect width="100" height="100"/>
</g></g><g transform="translate(1152,288) scale(0.96,0.96)"><g transform="" style="fill: rgb(214, 162, 236);">
<rect width="100" height="100"/>
</g></g><g transform="translate(864,384) scale(0.96,0.96)"><g transform="" style="fill: rgb(214, 162, 236);">
<rect width="100" height="100"/>
</g></g><g transform="translate(960,384) scale(0.96,0.96)"><g transform="" style="fill: rgb(214, 162, 236);">
<rect width="100" height="100"/>
</g></g><g transform="translate(1056,384) scale(0.96,0.96)"><g transform="" style="fill: rgb(214, 162, 236);">
<rect width="100" height="100"/>
</g></g><g transform="translate(1152,384) scale(0.96,0.96)"><g transform="" style="fill: rgb(214, 162, 236);">
<rect width="100" height="100"/>
</g></g><g transform="translate(768,480) scale(0.96,0.96)"><g transform="" style="fill: rgb(214, 162, 236);">
<rect width="100" height="100"/>
</g></g><g transform="translate(864,480) scale(0.96,0.96)"><g transform="" style="fill: rgb(214, 162, 236);">
<rect width="100" height="100"/>
</g></g><g transform="translate(1056,480) scale(0.96,0.96)"><g transform="" style="fill: rgb(214, 162, 236);">
<rect width="100" height="100"/>
</g></g><g transform="translate(1152,480) scale(0.96,0.96)"><g transform="" style="fill: rgb(214, 162, 236);">
<rect width="100" height="100"/>
</g></g><g transform="translate(768,576) scale(0.96,0.96)"><g transform="" style="fill: rgb(214, 162, 236);">
<rect width="100" height="100"/>
</g></g><g transform="translate(960,576) scale(0.96,0.96)"><g transform="" style="fill: rgb(214, 162, 236);">
<rect width="100" height="100"/>
</g></g><g transform="translate(1152,576) scale(0.96,0.96)"><g transform="" style="fill: rgb(214, 162, 236);">
<rect width="100" height="100"/>
</g></g><g transform="translate(1152,672) scale(0.96,0.96)"><g transform="" style="fill: rgb(214, 162, 236);">
<rect width="100" height="100"/>
</g></g><g transform="translate(0,768) scale(0.96,0.96)"><g transform="" style="fill: rgb(214, 162, 236);">
<rect width="100" height="100"/>
</g></g><g transform="translate(192,768) scale(0.96,0.96)"><g transform="" style="fill: rgb(214, 162, 236);">
<rect width="100" height="100"/>
</g></g><g transform="translate(576,768) scale(0.96,0.96)"><g transform="" style="fill: rgb(214, 162, 236);">
<rect width="100" height="100"/>
</g></g><g transform="translate(672,768) scale(0.96,0.96)"><g transform="" style="fill: rgb(214, 162, 236);">
<rect width="100" height="100"/>
</g></g><g transform="translate(864,768) scale(0.96,0.96)"><g transform="" style="fill: rgb(214, 162, 236);">
<rect width="100" height="100"/>
</g></g><g transform="translate(1440,768) scale(0.96,0.96)"><g transform="" style="fill: rgb(214, 162, 236);">
<rect width="100" height="100"/>
</g></g><g transform="translate(1728,768) scale(0.96,0.96)"><g transform="" style="fill: rgb(214, 162, 236);">
<rect width="100" height="100"/>
</g></g><g transform="translate(1920,768) scale(0.96,0.96)"><g transform="" style="fill: rgb(214, 162, 236);">
<rect width="100" height="100"/>
</g></g><g transform="translate(192,864) scale(0.96,0.96)"><g transform="" style="fill: rgb(214, 162, 236);">
<rect width="100" height="100"/>
</g></g><g transform="translate(288,864) scale(0.96,0.96)"><g transform="" style="fill: rgb(214, 162, 236);">
<rect width="100" height="100"/>
</g></g><g transform="translate(864,864) scale(0.96,0.96)"><g transform="" style="fill: rgb(214, 162, 236);">
<rect width="100" height="100"/>
</g></g><g transform="translate(1056,864) scale(0.96,0.96)"><g transform="" style="fill: rgb(214, 162, 236);">
<rect width="100" height="100"/>
</g></g><g transform="translate(1344,864) scale(0.96,0.96)"><g transform="" style="fill: rgb(214, 162, 236);">
<rect width="100" height="100"/>
</g></g><g transform="translate(1440,864) scale(0.96,0.96)"><g transform="" style="fill: rgb(214, 162, 236);">
<rect width="100" height="100"/>
</g></g><g transform="translate(1632,864) scale(0.96,0.96)"><g transform="" style="fill: rgb(214, 162, 236);">
<rect width="100" height="100"/>
</g></g><g transform="translate(1824,864) scale(0.96,0.96)"><g transform="" style="fill: rgb(214, 162, 236);">
<rect width="100" height="100"/>
</g></g><g transform="translate(96,960) scale(0.96,0.96)"><g transform="" style="fill: rgb(214, 162, 236);">
<rect width="100" height="100"/>
</g></g><g transform="translate(480,960) scale(0.96,0.96)"><g transform="" style="fill: rgb(214, 162, 236);">
<rect width="100" height="100"/>
</g></g><g transform="translate(576,960) scale(0.96,0.96)"><g transform="" style="fill: rgb(214, 162, 236);">
<rect width="100" height="100"/>
</g></g><g transform="translate(768,960) scale(0.96,0.96)"><g transform="" style="fill: rgb(214, 162, 236);">
<rect width="100" height="100"/>
</g></g><g transform="translate(1056,960) scale(0.96,0.96)"><g transform="" style="fill: rgb(214, 162, 236);">
<rect width="100" height="100"/>
</g></g><g transform="translate(1152,960) scale(0.96,0.96)"><g transform="" style="fill: rgb(214, 162, 236);">
<rect width="100" height="100"/>
</g></g><g transform="translate(1344,960) scale(0.96,0.96)"><g transform="" style="fill: rgb(214, 162, 236);">
<rect width="100" height="100"/>
</g></g><g transform="translate(1440,960) scale(0.96,0.96)"><g transform="" style="fill: rgb(214, 162, 236);">
<rect width="100" height="100"/>
</g></g><g transform="translate(1632,960) scale(0.96,0.96)"><g transform="" style="fill: rgb(214, 162, 236);">
<rect width="100" height="100"/>
</g></g><g transform="translate(1728,960) scale(0.96,0.96)"><g transform="" style="fill: rgb(214, 162, 236);">
<rect width="100" height="100"/>
</g></g><g transform="translate(0,1056) scale(0.96,0.96)"><g transform="" style="fill: rgb(214, 162, 236);">
<rect width="100" height="100"/>
</g></g><g transform="translate(288,1056) scale(0.96,0.96)"><g transform="" style="fill: rgb(214, 162, 236);">
<rect width="100" height="100"/>
</g></g><g transform="translate(1056,1056) scale(0.96,0.96)"><g transform="" style="fill: rgb(214, 162, 236);">
<rect width="100" height="100"/>
</g></g><g transform="translate(1440,1056) scale(0.96,0.96)"><g transform="" style="fill: rgb(214, 162, 236);">
<rect width="100" height="100"/>
</g></g><g transform="translate(1632,1056) scale(0.96,0.96)"><g transform="" style="fill: rgb(214, 162, 236);">
<rect width="100" height="100"/>
</g></g><g transform="translate(1920,1056) scale(0.96,0.96)"><g transform="" style="fill: rgb(214, 162, 236);">
<rect width="100" height="100"/>
</g></g><g transform="translate(0,1152) scale(0.96,0.96)"><g transform="" style="fill: rgb(214, 162, 236);">
<rect width="100" height="100"/>
</g></g><g transform="translate(192,1152) scale(0.96,0.96)"><g transform="" style="fill: rgb(214, 162, 236);">
<rect width="100" height="100"/>
</g></g><g transform="translate(288,1152) scale(0.96,0.96)"><g transform="" style="fill: rgb(214, 162, 236);">
<rect width="100" height="100"/>
</g></g><g transform="translate(576,1152) scale(0.96,0.96)"><g transform="" style="fill: rgb(214, 162, 236);">
<rect width="100" height="100"/>
</g></g><g transform="translate(768,1152) scale(0.96,0.96)"><g transform="" style="fill: rgb(214, 162, 236);">
<rect width="100" height="100"/>
</g></g><g transform="translate(864,1152) scale(0.96,0.96)"><g transform="" style="fill: rgb(214, 162, 236);">
<rect width="100" height="100"/>
</g></g><g transform="translate(1056,1152) scale(0.96,0.96)"><g transform="" style="fill: rgb(214, 162, 236);">
<rect width="100" height="100"/>
</g></g><g transform="translate(1152,1152) scale(0.96,0.96)"><g transform="" style="fill: rgb(214, 162, 236);">
<rect width="100" height="100"/>
</g></g><g transform="translate(1440,1152) scale(0.96,0.96)"><g transform="" style="fill: rgb(214, 162, 236);">
<rect width="100" height="100"/>
</g></g><g transform="translate(1632,1152) scale(0.96,0.96)"><g transform="" style="fill: rgb(214, 162, 236);">
<rect width="100" height="100"/>
</g></g><g transform="translate(1824,1152) scale(0.96,0.96)"><g transform="" style="fill: rgb(214, 162, 236);">
<rect width="100" height="100"/>
</g></g><g transform="translate(768,1248) scale(0.96,0.96)"><g transform="" style="fill: rgb(214, 162, 236);">
<rect width="100" height="100"/>
</g></g><g transform="translate(864,1248) scale(0.96,0.96)"><g transform="" style="fill: rgb(214, 162, 236);">
<rect width="100" height="100"/>
</g></g><g transform="translate(1248,1248) scale(0.96,0.96)"><g transform="" style="fill: rgb(214, 162, 236);">
<rect width="100" height="100"/>
</g></g><g transform="translate(1440,1248) scale(0.96,0.96)"><g transform="" style="fill: rgb(214, 162, 236);">
<rect width="100" height="100"/>
</g></g><g transform="translate(1728,1248) scale(0.96,0.96)"><g transform="" style="fill: rgb(214, 162, 236);">
<rect width="100" height="100"/>
</g></g><g transform="translate(768,1344) scale(0.96,0.96)"><g transform="" style="fill: rgb(214, 162, 236);">
<rect width="100" height="100"/>
</g></g><g transform="translate(960,1344) scale(0.96,0.96)"><g transform="" style="fill: rgb(214, 162, 236);">
<rect width="100" height="100"/>
</g></g><g transform="translate(1248,1344) scale(0.96,0.96)"><g transform="" style="fill: rgb(214, 162, 236);">
<rect width="100" height="100"/>
</g></g><g transform="translate(1344,1344) scale(0.96,0.96)"><g transform="" style="fill: rgb(214, 162, 236);">
<rect width="100" height="100"/>
</g></g><g transform="translate(1440,1344) scale(0.96,0.96)"><g transform="" style="fill: rgb(214, 162, 236);">
<rect width="100" height="100"/>
</g></g><g transform="translate(1536,1344) scale(0.96,0.96)"><g transform="" style="fill: rgb(214, 162, 236);">
<rect width="100" height="100"/>
</g></g><g transform="translate(1632,1344) scale(0.96,0.96)"><g transform="" style="fill: rgb(214, 162, 236);">
<rect width="100" height="100"/>
</g></g><g transform="translate(1728,1344) scale(0.96,0.96)"><g transform="" style="fill: rgb(214, 162, 236);">
<rect width="100" height="100"/>
</g></g><g transform="translate(864,1440) scale(0.96,0.96)"><g transform="" style="fill: rgb(214, 162, 236);">
<rect width="100" height="100"/>
</g></g><g transform="translate(1152,1440) scale(0.96,0.96)"><g transform="" style="fill: rgb(214, 162, 236);">
<rect width="100" height="100"/>
</g></g><g transform="translate(1248,1440) scale(0.96,0.96)"><g transform="" style="fill: rgb(214, 162, 236);">
<rect width="100" height="100"/>
</g></g><g transform="translate(1344,1440) scale(0.96,0.96)"><g transform="" style="fill: rgb(214, 162, 236);">
<rect width="100" height="100"/>
</g></g><g transform="translate(1728,1440) scale(0.96,0.96)"><g transform="" style="fill: rgb(214, 162, 236);">
<rect width="100" height="100"/>
</g></g><g transform="translate(1824,1440) scale(0.96,0.96)"><g transform="" style="fill: rgb(214, 162, 236);">
<rect width="100" height="100"/>
</g></g><g transform="translate(1920,1440) scale(0.96,0.96)"><g transform="" style="fill: rgb(214, 162, 236);">
<rect width="100" height="100"/>
</g></g><g transform="translate(864,1536) scale(0.96,0.96)"><g transform="" style="fill: rgb(214, 162, 236);">
<rect width="100" height="100"/>
</g></g><g transform="translate(1248,1536) scale(0.96,0.96)"><g transform="" style="fill: rgb(214, 162, 236);">
<rect width="100" height="100"/>
</g></g><g transform="translate(1344,1536) scale(0.96,0.96)"><g transform="" style="fill: rgb(214, 162, 236);">
<rect width="100" height="100"/>
</g></g><g transform="translate(1536,1536) scale(0.96,0.96)"><g transform="" style="fill: rgb(214, 162, 236);">
<rect width="100" height="100"/>
</g></g><g transform="translate(1728,1536) scale(0.96,0.96)"><g transform="" style="fill: rgb(214, 162, 236);">
<rect width="100" height="100"/>
</g></g><g transform="translate(1920,1536) scale(0.96,0.96)"><g transform="" style="fill: rgb(214, 162, 236);">
<rect width="100" height="100"/>
</g></g><g transform="translate(960,1632) scale(0.96,0.96)"><g transform="" style="fill: rgb(214, 162, 236);">
<rect width="100" height="100"/>
</g></g><g transform="translate(1248,1632) scale(0.96,0.96)"><g transform="" style="fill: rgb(214, 162, 236);">
<rect width="100" height="100"/>
</g></g><g transform="translate(1440,1632) scale(0.96,0.96)"><g transform="" style="fill: rgb(214, 162, 236);">
<rect width="100" height="100"/>
</g></g><g transform="translate(1536,1632) scale(0.96,0.96)"><g transform="" style="fill: rgb(214, 162, 236);">
<rect width="100" height="100"/>
</g></g><g transform="translate(1632,1632) scale(0.96,0.96)"><g transform="" style="fill: rgb(214, 162, 236);">
<rect width="100" height="100"/>
</g></g><g transform="translate(768,1728) scale(0.96,0.96)"><g transform="" style="fill: rgb(214, 162, 236);">
<rect width="100" height="100"/>
</g></g><g transform="translate(864,1728) scale(0.96,0.96)"><g transform="" style="fill: rgb(214, 162, 236);">
<rect width="100" height="100"/>
</g></g><g transform="translate(960,1728) scale(0.96,0.96)"><g transform="" style="fill: rgb(214, 162, 236);">
<rect width="100" height="100"/>
</g></g><g transform="translate(1056,1728) scale(0.96,0.96)"><g transform="" style="fill: rgb(214, 162, 236);">
<rect width="100" height="100"/>
</g></g><g transform="translate(1152,1728) scale(0.96,0.96)"><g transform="" style="fill: rgb(214, 162, 236);">
<rect width="100" height="100"/>
</g></g><g transform="translate(1344,1728) scale(0.96,0.96)"><g transform="" style="fill: rgb(214, 162, 236);">
<rect width="100" height="100"/>
</g></g><g transform="translate(1728,1728) scale(0.96,0.96)"><g transform="" style="fill: rgb(214, 162, 236);">
<rect width="100" height="100"/>
</g></g><g transform="translate(1824,1728) scale(0.96,0.96)"><g transform="" style="fill: rgb(214, 162, 236);">
<rect width="100" height="100"/>
</g></g><g transform="translate(1920,1728) scale(0.96,0.96)"><g transform="" style="fill: rgb(214, 162, 236);">
<rect width="100" height="100"/>
</g></g><g transform="translate(960,1824) scale(0.96,0.96)"><g transform="" style="fill: rgb(214, 162, 236);">
<rect width="100" height="100"/>
</g></g><g transform="translate(1344,1824) scale(0.96,0.96)"><g transform="" style="fill: rgb(214, 162, 236);">
<rect width="100" height="100"/>
</g></g><g transform="translate(1536,1824) scale(0.96,0.96)"><g transform="" style="fill: rgb(214, 162, 236);">
<rect width="100" height="100"/>
</g></g><g transform="translate(1632,1824) scale(0.96,0.96)"><g transform="" style="fill: rgb(214, 162, 236);">
<rect width="100" height="100"/>
</g></g><g transform="translate(1728,1824) scale(0.96,0.96)"><g transform="" style="fill: rgb(214, 162, 236);">
<rect width="100" height="100"/>
</g></g><g transform="translate(1920,1824) scale(0.96,0.96)"><g transform="" style="fill: rgb(214, 162, 236);">
<rect width="100" height="100"/>
</g></g><g transform="translate(768,1920) scale(0.96,0.96)"><g transform="" style="fill: rgb(214, 162, 236);">
<rect width="100" height="100"/>
</g></g><g transform="translate(864,1920) scale(0.96,0.96)"><g transform="" style="fill: rgb(214, 162, 236);">
<rect width="100" height="100"/>
</g></g><g transform="translate(1056,1920) scale(0.96,0.96)"><g transform="" style="fill: rgb(214, 162, 236);">
<rect width="100" height="100"/>
</g></g><g transform="translate(1152,1920) scale(0.96,0.96)"><g transform="" style="fill: rgb(214, 162, 236);">
<rect width="100" height="100"/>
</g></g><g transform="translate(1536,1920) scale(0.96,0.96)"><g transform="" style="fill: rgb(214, 162, 236);">
<rect width="100" height="100"/>
</g></g><g transform="translate(1728,1920) scale(0.96,0.96)"><g transform="" style="fill: rgb(214, 162, 236);">
<rect width="100" height="100"/>
</g></g><g transform="translate(1824,1920) scale(0.96,0.96)"><g transform="" style="fill: rgb(214, 162, 236);">
<rect width="100" height="100"/>
</g></g><g transform="translate(1920,1920) scale(0.96,0.96)"><g transform="" style="fill: rgb(214, 162, 236);">
<rect width="100" height="100"/>
</g></g><g transform="translate(0,0) scale(6.72, 6.72)"><g transform="" style="fill: rgb(214, 162, 236);">
<g>
	<rect x="15" y="15" style="fill:none;" width="70" height="70"/>
	<path d="M85,0H15H0v15v70v15h15h70h15V85V15V0H85z M85,85H15V15h70V85z"/>
</g>
</g></g><g transform="translate(1344,0) scale(6.72, 6.72)"><g transform="" style="fill: rgb(214, 162, 236);">
<g>
	<rect x="15" y="15" style="fill:none;" width="70" height="70"/>
	<path d="M85,0H15H0v15v70v15h15h70h15V85V15V0H85z M85,85H15V15h70V85z"/>
</g>
</g></g><g transform="translate(0,1344) scale(6.72, 6.72)"><g transform="" style="fill: rgb(214, 162, 236);">
<g>
	<rect x="15" y="15" style="fill:none;" width="70" height="70"/>
	<path d="M85,0H15H0v15v70v15h15h70h15V85V15V0H85z M85,85H15V15h70V85z"/>
</g>
</g></g><g transform="translate(192,192) scale(2.88, 2.88)"><g transform="" style="fill: rgb(214, 162, 236);">
<rect width="100" height="100"/>
</g></g><g transform="translate(1536,192) scale(2.88, 2.88)"><g transform="" style="fill: rgb(214, 162, 236);">
<rect width="100" height="100"/>
</g></g><g transform="translate(192,1536) scale(2.88, 2.88)"><g transform="" style="fill: rgb(214, 162, 236);">
<rect width="100" height="100"/>
</g></g></g></svg>